<svg height="44" viewBox="0 0 166 44" width="166" xmlns="http://www.w3.org/2000/svg"><g fill="none" fill-rule="evenodd"><g transform="translate(.1)"><g fill="#fff"><path d="m11.5651579 15.2160535c.0308751 1.4786683 1.2531711 2.6719291 2.7232726 2.6566353 1.4563026-.0165012 2.6852681-1.2487439 2.6930047-2.7035516.0008877-.1878377-.0179133-.3714782-.0555153-.5483917-.2589596-1.2393722-1.3957024-2.167004-2.7401188-2.1369914-1.4920648.03168-2.6521507 1.2429369-2.6206432 2.7322994"/><path d="m17.0134165 4.5632194c0 .86846896.7039744 1.5725009 1.5725009 1.5725009h3.8857733c.868469 0 1.5724434-.70403194 1.5724434-1.5725009 0-.86846897-.7039744-1.57250091-1.5724434-1.57250091h-3.8857733c-.8685265 0-1.5725009.70403194-1.5725009 1.57250091"/><path d="m36.7763606 25.2654325c-.0012649.0272528-.0025298.0541607-.0037947.081356l.0037947-.0064395.0208709-2.2350211-.0405343-.0749166h-4.8051833-.7804434c-.2844876-2.1624618-2.1304369-3.833165-4.3706326-3.833165s-4.0859726 1.6707032-4.3705176 3.833165h-3.8022325c-.2846025-2.1624618-2.1303794-3.833165-4.3706326-3.833165-2.2401382 0-4.08603 1.6707032-4.37057508 3.833165h-.78044341-4.8052408l-.04047681.0749166.02087086 2.2350211.0037947.0064395c-.0012649-.0271953-.00247231-.0541032-.0037947-.081356z"/><path d="m11.9559488 27.6766197c-1.1858439 0-2.14722555.9613241-2.14722555 2.1472255s.96138165 2.1471681 2.14722555 2.1471681 2.1472256-.9612667 2.1472256-2.1471681-.9613817-2.1472255-2.1472256-2.1472255"/></g><path d="m1.42147488 21.8247717.23734127-.0290927c.3002988-.0368546.45956123-.1317796.59335317-.2897196.13373445-.1579401.22704959-.3770553.27574824-.6476289.04869866-.2705737.05600058-.5667328-.00776188-1.0854569l-.05030853-.4100001c-.06370498-.5187241-.14241627-.8043615-.25504988-1.0550992-.1127486-.2507953-.25625727-.4408178-.42425902-.5616732-.16800174-.120913-.34554773-.1744413-.64578904-.1375867l-.23734127.0291502c-.3002988.0368546-.45961872.1317796-.59341067.2897197-.13373444.15794-.22704958.3769977-.27574824.6475714-.04864116.2705736-.05594308.5667902.00776189 1.0855143l.05036603.4099427c.06370497.5187815.14241626.8044765.25510737 1.0552142.1126911.2507377.25619978.4407027.42420152.5616157.16794425.1208554.34549023.1744412.64578904.1375291" fill="#163435"/><path d="m16.9259371 14.6207167c.0375445.1769136.0563456.3605541.0555115.5483917-.0077328 1.4548077-1.2366983 2.687108-2.6930009 2.7036092-1.4701014.0152363-2.6923975-1.1780245-2.7232726-2.6566929-.0315075-1.4893624 1.1285785-2.7005618 2.6206432-2.7322418 1.3444164-.0300127 2.4811592.8975616 2.7401188 2.1369338zm7.2056764 0c.2589595-1.2393722 1.3957598-2.1669465 2.7401187-2.1369338 1.4921223.03168 2.6520933 1.2428794 2.6206432 2.7322418-.030875 1.4786684-1.2531711 2.6719292-2.7232726 2.6566929-1.4563025-.0165012-2.6852681-1.2488015-2.6930008-2.7036092-.0008341-.1878376.0179669-.3714781.0555115-.5483917zm-14.24519088 8.4097464c.28460258-2.1625194 2.13049438-3.833165 4.37063258-3.833165 2.2402532 0 4.0860301 1.6706456 4.3706326 3.833165h3.8022325c.284545-2.1625194 2.1303219-3.833165 4.3705176-3.833165s4.0860875 1.6706456 4.3706326 3.833165h.7804434 4.8051833.0405343v-.3068533-1.3399893c0-4.1676161-.5907084-6.5048641-1.6999109-8.5989064-1.0393455-1.9621477-2.5391146-3.29259266-4.4295654-4.40351999v.04214417h-20.2779598v-.04214417c-1.89045082 1.11092733-3.39021996 2.44137229-4.42956544 4.40351999-1.10925997 2.0940423-1.69991086 4.4312903-1.69991086 8.5989064v1.3399893.3068533h.04047681 4.8052408z" fill="#163435"/><path d="m10.9504509 37.9665999c-.2356739-.1206255-.4644483-.2498178-.6895431-.3834372-.0210433-.0125341-.0414542-.0258155-.0623826-.038407-.1368392.2144006-.24769041.4677831-.3150176.7777411-.09504.4374255-.1241327.91895-.05076849 1.7668356l.05789793.6701096c.07336421.8478281.18467546 1.3172211.35342466 1.7318783.1686916.4145998.3911991.7322048.6574606.9387285.266319.2065237.5521289.304036 1.0428527.2616043l.3879219-.0335773c.4907812-.0424317.7555478-.1875502.9824249-.4367356.2269346-.2491853.3916016-.6002526.4866416-1.0376781.0949825-.4374255.1241327-.9190075.050826-1.7668356l-.0579554-.6701096c-.0291502-.3368084-.0649124-.6105443-.1074015-.8472531-.0085669-.0020124-.0174787-.0037947-.0259305-.0058071-1.057859-.246483-1.9818686-.5540837-2.7104511-.9270568" fill="#163435"/><path d="m11.9559488 31.9710363c-1.1858439 0-2.14722555-.9613242-2.14722555-2.1472256 0-1.1858439.96138165-2.147168 2.14722555-2.147168s2.1472256.9613241 2.1472256 2.147168c0 1.1859014-.9613817 2.1472256-2.1472256 2.1472256zm17.1456645-4.2943936c1.1858439 0 2.1472255.9613241 2.1472255 2.147168 0 1.1859014-.9613816 2.1472256-2.1472255 2.1472256-1.1859014 0-2.1472256-.9613242-2.1472256-2.1472256 0-1.1858439.9613242-2.147168 2.1472256-2.147168zm-8.1703928 11.9073103v-.0029323c2.4094049-.0282302 4.6275224-.2620068 6.4394919-.6816087.0085668-.0019548.0174211-.0037372.0259879-.0057495 1.0578015-.2464831 1.9818111-.5540838 2.7103936-.9270569.2356739-.1206254.4644484-.2498177.6895431-.3834947.0210434-.0124765.0414542-.025758.0623826-.0383495 1.7318783-1.0422202 3.1471866-2.4680502 4.1922242-4.24512 1.5606568-2.6536456 1.5856098-5.0466067 1.7212991-7.9528874.0012649-.0271953.0025298-.0540457.0037947-.0812986h-32.49511315c.0012649.0272529.0025298.0541033.00373721.0812986.13574679 2.9062807.16069982 5.2992418 1.72129916 7.9528874 1.04509503 1.7770698 2.46040334 3.2028998 4.19228168 4.24512.0209283.0125915.0412817.025873.0623826.0383495.2250947.133677.4538692.2628693.6895431.3834947.7285825.3729731 1.652592.6805738 2.7103936.9270569.0085093.0020123.0174211.0037947.0259304.0057495 1.812027.4196019 4.0301445.6533785 6.4394919.6816087v.0029323h.3082331c.031565 0 .0627276-.0004599.0942351-.0005174.0315075.0000575.0627275.0005174.0942926.0005174z" fill="#77962c"/><path d="m22.4716677 2.99074149c.868469 0 1.5725009.70403194 1.5725009 1.57250091 0 .86846896-.7040319 1.57244341-1.5725009 1.57244341h-3.8857733c-.868469 0-1.5725009-.70397445-1.5725009-1.57244341 0-.86846897.7040319-1.57250091 1.5725009-1.57250091zm8.1960932 5.43263129v-.04220167-.78257075c0-2.08714279-.3733755-3.25763542-1.0745327-4.30635266-.7010422-1.04877474-1.7299235-1.87182229-3.04082-2.43269053-1.3108966-.56086824-2.7740411-.85955717-5.3829552-.85955717h-1.2813439c-2.6089141 0-4.0720587.29868893-5.3830127.85955717-1.3108391.56086824-2.3397204 1.38391579-3.0407625 2.43269053-.7011572 1.04871724-1.0745328 2.21920987-1.0745328 4.30635266v.78257075.04220167z" fill="#77962c"/><path d="m26.7691143 17.8726888c1.470044.0152938 2.6923976-1.177967 2.7232726-2.6566353.0314501-1.4893625-1.1285784-2.7006194-2.6206432-2.7322994-1.3444164-.0300126-2.4811592.8976192-2.7401187 2.1369339-.0375446.176971-.0564031.3606115-.0555153.5484492.0077365 1.4548077 1.2367021 2.6870504 2.6930046 2.7035516" fill="#fff"/><path d="m29.1016133 31.9710363c1.1858439 0 2.1472255-.9613242 2.1472255-2.1472256 0-1.1858439-.9613816-2.147168-2.1472255-2.147168-1.1859014 0-2.1472256.9613241-2.1472256 2.147168 0 1.1859014.9613242 2.1472256 2.1472256 2.1472256" fill="#fff"/><path d="m39.9128359 17.6085144c-.3002988-.0368546-.4778448.0166737-.6457891.1375867-.1680017.1208554-.3115679.3108779-.424259.5616732-.1126336.2507377-.1913449.5363751-.2551074 1.0550992l-.0503085.4100001c-.063705.5187241-.056403.8148832-.0077619 1.0854569.0486987.2705736.1419563.4896888.2757483.6476289.1337344.15794.2931118.252865.5933531.2897196l.2373413.0290927c.3002413.0369121.4777873-.0166737.6458465-.1375291.1680018-.120913.3115105-.310878.4242016-.5616157s.1914024-.5364327.2550498-1.0552142l.0503661-.4099427c.0637049-.5187241.0564605-.8149407.0077619-1.0855143-.0487562-.2705162-.1420138-.4896314-.2758058-.6475714-.1337344-.1579401-.2929969-.2528651-.5932957-.2897197z" fill="#163435"/><path d="m30.1071112 37.9665999c-.7285825.3729731-1.6525921.6805738-2.7104511.9270568-.0085094.0020124-.0173637.0037947-.0259305.0058071-.0424891.2367088-.0782513.5104447-.1074015.8472531l-.0579554.6701096c-.0733068.8478281-.044214 1.3294101.050826 1.7668356s.259707.7884928.4866415 1.0376781c.2268771.2491854.4916438.3943039.982425.4367356l.3879219.0335773c.4907238.0424317.7764762-.0550806 1.0427952-.2616043.2662615-.2065237.4888264-.5241287.6575181-.9387285.1687492-.4146572.2800604-.8840502.3534246-1.7318783l.057898-.6701096c.0733642-.8478856.044214-1.3294101-.0507685-1.7668356-.0673847-.309958-.178236-.5633405-.3150177-.7777411-.0209283.0125915-.0413967.0258729-.0623825.038407-.2250948.1336194-.4538692.2628117-.6895431.3834372" fill="#163435"/></g><path d="m96.637712 6.27609039c.2882009 0 2.6552964 6.30954211 2.6552964 6.30954211s2.5935026-6.26861053 2.7169886-6.28907632c.144151-.02046579 2.305505.43018685 2.346633.5530829-.43225 1.47505658-5.8458667 13.47945792-6.2986811 14.13497102-.5763.0205671-2.2641739-.7784092-2.3876594-.9628039.0616919-.2457921 1.7907955-3.8101829 2.181918-4.8345869-.4940442-.9832697-3.5198991-7.86636048-3.4993352-8.41944338 0-.16382763 1.9967406-.49168553 2.2848397-.49168553zm-52.2812214.08195435c0 .26635921-.0205639 1.00373552-.0205639 1.27009473.308663-.51215131 1.379109-1.33159342 3.1493405-1.33159342 2.4905811 0 4.5077838 1.76178027 4.5077838 5.12141185 0 3.1343053-1.975973 5.0188803-4.6724991 5.0394474-1.379109 0-2.5729387-.5941158-2.9022676-1.1471987 0 .6542222.0192587 1.9175568.0228193 3.0589707l-.000027.6643696c-.0035679.921617-.0241781 1.6418406-.084586 1.6847952-.1441513.1433618-2.3053018.2253263-2.6141684.0614987-.0047983-.0023995-.0079158-.1952376-.0093853-.5347942l-.0008568-.3259599c-.0001515-.1199505-.0001694-.2508584-.0000542-.3917038l.0007438-.4513294c.0030433-1.2776075.0145494-3.1259602.0341264-5.0229668l.0118607-1.0687562c.0395321-3.31956985.1035564-6.48834769.1899726-6.70825024.0411279-.08186315 2.3877612.08196448 2.3877612.08196448zm-37.13159637-4.50673908c2.22304595 0 3.84912617.71691052 4.52844957 1.31102631.0205639.32765527-.6998874 1.98700527-1.0909081 2.33532895-.74111714-.49168553-1.99663876-1.04476842-3.4169775-1.04476842-2.44945315 0-4.30204234 2.06896974-4.30204234 4.77318947 0 3.19570263 1.77023153 4.91645003 4.07563513 4.91645003 1.7290018 0 3.04641891-.9423382 3.51979731-1.3110263.3911225.2867236 1.0703441 1.5157855 1.3174171 2.0689697-.782245.860475-2.82001171 1.8642105-5.08418558 1.8642105-4.59024324 0-6.77205946-3.3391658-6.77205946-7.62066972 0-4.0765421 2.75821802-7.29271052 7.22487387-7.29271052zm101.61879277 4.46579737c1.893615 0 3.293288.63494605 3.602155.96280394.144049.12289606-.65876 1.84364342-.802809 1.84364342-.082358.02046579-1.276188-.8194421-2.614169-.8194421-1.090908 0-1.543722.53271842-1.543722 1.08580132 0 .63494609.432149.92177109 1.914281 1.12673289 2.305302.3276553 3.499233 1.1470974 3.499233 2.9293434 0 1.8027119-1.255623 3.2367355-3.952047 3.2367355-1.996741 0-3.684615-.8808394-3.993278-1.2905605-.144151-.1639289.761478-1.8847776.885065-1.782246l.135419.0986832c.444991.3201012 1.538689 1.0484141 2.746285 1.0484141 1.091009 0 1.646745-.4301868 1.646745-1.0446671 0-.6556144-.47348-.9423381-1.934845-1.1882315-2.367197-.4097211-3.458105-1.2905606-3.458105-2.97037636 0-2.02803816 1.461467-3.23663421 3.869792-3.23663421zm-72.452658.10239986c2.4494532 0 3.6844108 1.53645395 3.6844108 4.09710921 0 1.372525-.0822558 5.0188803-.1440495 5.9407526-.020564.1843948-2.4287874.1843948-2.4906829.1433619-.0822559-.0613974.0824594-4.629625.0824594-5.879254 0-1.04476839-.4322504-2.00767365-1.7496675-2.00767365-1.3997748 0-1.8730514 1.33159345-1.8730514 1.96664075 0 1.5569198-.0617937 4.6092606-.1441513 5.654029-.041128.2253263-2.3670955.0819645-2.4287874.0409316-.1030234-.0409316.020564-4.9369158.020564-5.6539277 0-1.06523418-.4529163-2.00767365-1.7496676-2.00767365-1.2761874 0-1.8524874 1.1062671-1.8524874 1.78224605l-.0008846.1651734c-.0034926.4252799-.0170507 1.3934532-.0357253 2.4238408l-.014888.7769453c-.0278982 1.3752696-.0626929 2.6475072-.0926535 2.6773247-.0411279.1024303-2.3670954.0409316-2.4287873-.0819645-.0101131-.0401102-.0202017-1.3557047-.0230363-3.1905685l-.0000208-2.0712865c.0004025-.2745138.0009713-.553387.0017223-.8349415l.0017498-.56618696c.0003337-.09479459.0006888-.1897628.001066-.28484247l.0025322-.57131839c.0037414-.76221537.0089689-1.52360889.0159868-2.25235827.1440495-.286825 2.3670955-.14346316 2.511145.04093157 0 .40972106-.020564 1.00373553-.0411279 1.14709737.4116865-.71691052 1.3584432-1.45438816 2.8817036-1.45438816 1.132036 0 2.2848396.63504737 2.778782 1.59785132.6998873-1.20859605 2.1612522-1.59785132 3.0875468-1.59785132zm52.5690558-.04102276c2.8405757 0 5.0223919 1.86421053 5.0223919 5.20337627 0 2.7244829-1.7907955 4.9779487-4.9811622 5.0394474-2.8200117 0-4.981264-1.946175-4.981264-5.2443079 0-2.51972366 1.8113595-4.99851577 4.9400343-4.99851577zm-31.0187647 0c2.5728369 0 4.2401468 1.9256079 4.2401468 4.13814207 0 .6350474-.0616919 1.1266316-.1851774 1.5158869-1.0086523.1433618-5.0224937.1433618-6.3810388.1024302 0 1.4340237 1.1115739 2.3148632 2.6347325 2.3148632 1.2350594 0 1.9966387-.4506526 2.5729387-.8808395.1647153.1433619.8851667 1.5158869.9057306 1.7822461-.535172.5121513-1.9142811 1.2290618-3.6021549 1.2290618-3.4169775 0-4.981264-2.3557947-4.981264-4.9984145 0-2.70411837 1.6878739-5.20337627 4.7960865-5.20337627zm18.07209-4.32238487c3.2932883 0 5.8045351 1.08580132 5.8045351 3.89224869 0 1.65935-.7410153 2.49925789-1.7701297 2.9908421v.12289606c1.2761874.26635921 2.7375522 1.41345659 2.7375522 3.48252759 0 2.7656171-2.0789963 3.9742132-5.5987936 3.9742132-1.9141793 0-4.8577784-.1638276-4.9400343-.2457921-.0763039-.0607668-.1412491-7.62047377-.1445988-11.59336148l-.0000626-.52996254c.0007525-1.09298193.0073483-1.81099811.0211758-1.8477181.041128-.16403026 3.6844108-.24589342 3.8903559-.24589342zm-9.65359 4.44532145c.0411279.45065263 0 1.35205921-.020564 1.45448947.8027072-1.35195789 2.3465316-1.67981579 3.6844108-1.47495526.2882009.14346316-.0205639 2.35589605-.3087648 2.68355132-.3498928-.08196448-.9056289-.18429342-1.3585451-.18429342-.9879865.02046579-1.6878738.77840921-1.8936153 1.76167898-.0038653.0326553-.0061021.1085216-.0070158.2192605l-.0001535.2655037c.0052426 1.1258831.0706995 3.8281822.0759903 4.8184479l-.0001392.2251547c-.0009059.0888831-.0031342.1403719-.0069899.1461279-.0411279.0819645-2.6141685.1228961-2.6552964 0-.0166262-.0330936-.0265311-1.5559769-.0283563-3.3857988l-.0000658-1.1854517c.0020678-2.40837938.0174838-4.90916971.0489861-5.11838897.1234856-.30729079 2.3259675-.40961974 2.4701189-.22532632zm-49.028776-.06149868c1.7084379 0 2.7582181 1.1062671 3.1081109 1.61841842 0-.286825-.041128-1.14719869 0-1.24962895.0617936-.20475921 2.14079-.22532632 2.4494531-.06139737.0035089.00174177.0056758.07010521.0066657.19397779l.0003104.36769689c-.0029028.85376337-.0248325 2.55962068-.053129 4.26451209l-.0102307.6002972c-.0365886 2.0911763-.08062 4.0277343-.1082299 4.2016568-.020564.0613974-1.8524874.2047592-2.3465315 0 0-.2458934-.041128-1.0037355-.041128-1.2496289-.3499946.4711184-1.4820306 1.3520592-3.1493405 1.3520592-2.5523748 0-4.5902432-1.7413145-4.5902432-5.1008448 0-2.94991048 2.2642756-4.91655127 4.7342927-4.93711837zm71.7319623 2.39688842c-1.7290018-.02046579-2.5729387 1.12663158-2.5729387 2.72458425 0 1.8436434 1.1527018 2.7859815 2.4083252 2.7859815 1.7084378.0204658 2.5935027-1.0038368 2.5935027-2.7859815 0-2.08953688-1.1527018-2.70411846-2.4288892-2.72458425zm-12.3292468 1.35200855c-.7615792 0-1.2761873.0204658-1.7702315.0614987-.0274186.3277228-.0365582 1.966562-.0396047 3.0227078l-.0008065.3278695c-.0001024.0501821-.0001902.0979164-.0002654.142878l-.0004513.4397249c.6380937.0613974 1.2144955.1024303 1.934845.1024303 2.0377667 0 2.9434973-.8603737 2.9434973-2.0075724 0-1.3110263-1.0497802-2.0895368-3.0669829-2.0895368zm-29.8866879-1.45450974c-1.6877721 0-2.4905811 1.08580132-2.4905811 2.66318684 0 1.8027118 1.1526 2.7859816 2.4494532 2.7859816 1.6260802 0 2.5112468-1.0858013 2.5112468-2.74505 0-1.92560791-1.0909081-2.70411844-2.4701189-2.70411844zm-29.0014194.02057724c-1.5438244 0-2.5318109 1.04476842-2.5318109 2.7245842 0 1.9050408 1.1938298 2.6835513 2.5523748 2.6835513 1.7084379 0 2.4906829-1.1471987 2.4906829-2.7245842 0-1.80271183-1.1527018-2.6835513-2.5112468-2.6835513zm40.0337723-.51219184c-1.3585451 0-2.223046 1.06523421-2.223046 2.29439734l4.1579928-.0410329c.0823577-1.35205918-.6587594-2.25336444-1.9349468-2.25336444zm18.3809567-3.9741625c-.6380937 0-1.1321379.04093158-1.4203388.06139737-.0174003.23403947-.023758.94473736-.0253025 1.68687563l-.0000748.80066968c.0009266.57774453.0035591 1.06815828.0044858 1.22739156l.0003276.05441576c.2635445.01637263.5269587.01964716.9906537.02030206l.3884553.00016373c1.8524874 0 2.7993459-.67587763 2.7993459-1.884575 0-1.47505658-1.5642865-1.96664079-2.7375522-1.96664079z" fill="#163435" transform="translate(53 12)"/></g></svg>